<svg xmlns="http://www.w3.org/2000/svg" viewBox="0 0 1800 1200" preserveAspectRatio="xMidYMid slice">
  <defs>
    <linearGradient id="sky" x1="0" x2="1" y1="0" y2="1">
      <stop offset="0" stop-color="#cfc8b7"/>
      <stop offset="0.48" stop-color="#79827a"/>
      <stop offset="1" stop-color="#1b1c1c"/>
    </linearGradient>
    <linearGradient id="ground" x1="0" x2="1" y1="0" y2="0">
      <stop offset="0" stop-color="#141515"/>
      <stop offset="0.44" stop-color="#4d5a4d"/>
      <stop offset="1" stop-color="#b8b09f"/>
    </linearGradient>
    <filter id="grain">
      <feTurbulence type="fractalNoise" baseFrequency="0.72" numOctaves="4" seed="17"/>
      <feColorMatrix type="saturate" values="0"/>
      <feComponentTransfer>
        <feFuncA type="table" tableValues="0 0.22"/>
      </feComponentTransfer>
    </filter>
    <filter id="soften">
      <feGaussianBlur stdDeviation="18"/>
    </filter>
  </defs>
  <rect width="1800" height="1200" fill="url(#sky)"/>
  <path d="M0 724C196 654 356 632 559 682c199 49 339 58 559-26 259-99 438-57 682 24v520H0Z" fill="url(#ground)"/>
  <path d="M0 832c269-68 429-44 665 10 277 64 562-32 756-60 143-21 263-5 379 48v370H0Z" fill="#1b1d1c" opacity=".78"/>
  <g opacity=".44" filter="url(#soften)">
    <ellipse cx="1282" cy="378" rx="520" ry="210" fill="#efe4cf"/>
    <ellipse cx="300" cy="790" rx="380" ry="180" fill="#0c0d0d"/>
  </g>
  <path d="M0 704h1800" stroke="#f2ead9" stroke-width="2" opacity=".22"/>
  <path d="M0 838c246-50 429-28 665 26 277 64 562-32 756-60 143-21 263-5 379 48" fill="none" stroke="#d6cab4" stroke-width="3" opacity=".2"/>
  <rect width="1800" height="1200" filter="url(#grain)" opacity=".55"/>
</svg>
